<mxfile host="app.diagrams.net" modified="2023-04-16T10:11:19.679Z" agent="Mozilla/5.0 (Windows NT 10.0; Win64; x64; rv:109.0) Gecko/20100101 Firefox/111.0" etag="EB18OSVAY3zr-LSezvqX" version="21.1.8" type="device">
  <diagram name="Страница 1" id="AQNEagUpSirrdBKasuVi">
    <mxGraphModel dx="3475" dy="1345" grid="0" gridSize="10" guides="1" tooltips="1" connect="1" arrows="1" fold="1" page="1" pageScale="1" pageWidth="850" pageHeight="1100" math="0" shadow="0">
      <root>
        <mxCell id="0" />
        <mxCell id="1" parent="0" />
        <mxCell id="csbuQ1kqr8Ar-hGWvevk-253" value="" style="rounded=0;whiteSpace=wrap;html=1;dashed=1;fillColor=#dae8fc;strokeColor=#6c8ebf;" parent="1" vertex="1">
          <mxGeometry x="202" y="162" width="1350" height="468" as="geometry" />
        </mxCell>
        <mxCell id="csbuQ1kqr8Ar-hGWvevk-183" value="" style="rounded=0;whiteSpace=wrap;html=1;dashed=1;" parent="1" vertex="1">
          <mxGeometry x="201.66666666666674" y="630" width="1350" height="970" as="geometry" />
        </mxCell>
        <mxCell id="csbuQ1kqr8Ar-hGWvevk-184" style="rounded=0;orthogonalLoop=1;jettySize=auto;html=1;exitX=1;exitY=0.5;exitDx=0;exitDy=0;entryX=0;entryY=0.5;entryDx=0;entryDy=0;endArrow=none;endFill=0;" parent="1" source="csbuQ1kqr8Ar-hGWvevk-187" target="csbuQ1kqr8Ar-hGWvevk-195" edge="1">
          <mxGeometry relative="1" as="geometry" />
        </mxCell>
        <mxCell id="csbuQ1kqr8Ar-hGWvevk-185" value="&lt;div&gt;&lt;font style=&quot;font-size: 18px;&quot;&gt;глобальная&lt;/font&gt;&lt;/div&gt;&lt;div&gt;&lt;font style=&quot;font-size: 18px;&quot;&gt;настройка&lt;br&gt;&lt;/font&gt;&lt;/div&gt;" style="edgeLabel;html=1;align=center;verticalAlign=middle;resizable=0;points=[];" parent="csbuQ1kqr8Ar-hGWvevk-184" vertex="1" connectable="0">
          <mxGeometry x="0.6546" y="-6" relative="1" as="geometry">
            <mxPoint x="3" y="-2" as="offset" />
          </mxGeometry>
        </mxCell>
        <mxCell id="csbuQ1kqr8Ar-hGWvevk-186" style="rounded=0;orthogonalLoop=1;jettySize=auto;html=1;exitX=0;exitY=0.5;exitDx=0;exitDy=0;entryX=1;entryY=0.5;entryDx=0;entryDy=0;endArrow=none;endFill=0;" parent="1" source="csbuQ1kqr8Ar-hGWvevk-187" target="csbuQ1kqr8Ar-hGWvevk-189" edge="1">
          <mxGeometry relative="1" as="geometry" />
        </mxCell>
        <mxCell id="csbuQ1kqr8Ar-hGWvevk-187" value="&lt;font style=&quot;font-size: 18px;&quot;&gt;Autoreport&lt;/font&gt;" style="ellipse;whiteSpace=wrap;html=1;" parent="1" vertex="1">
          <mxGeometry x="816.6666666666667" y="707" width="120" height="80" as="geometry" />
        </mxCell>
        <mxCell id="csbuQ1kqr8Ar-hGWvevk-188" value="&lt;div&gt;&lt;font style=&quot;font-size: 18px;&quot;&gt;templates&lt;br&gt;&lt;/font&gt;&lt;/div&gt;&lt;div&gt;&lt;font style=&quot;font-size: 18px;&quot;&gt;&lt;br&gt;&lt;/font&gt;&lt;/div&gt;&lt;div&gt;&lt;font style=&quot;font-size: 18px;&quot;&gt;&lt;br&gt;&lt;/font&gt;&lt;/div&gt;&lt;div&gt;&lt;font style=&quot;font-size: 18px;&quot;&gt;&lt;br&gt;&lt;/font&gt;&lt;/div&gt;&lt;div&gt;&lt;font style=&quot;font-size: 18px;&quot;&gt;&lt;br&gt;&lt;/font&gt;&lt;/div&gt;" style="ellipse;whiteSpace=wrap;html=1;" parent="1" vertex="1">
          <mxGeometry x="1281.6666666666667" y="700" width="240" height="190" as="geometry" />
        </mxCell>
        <mxCell id="csbuQ1kqr8Ar-hGWvevk-189" value="&lt;div&gt;&lt;font style=&quot;font-size: 18px;&quot;&gt;controllers&lt;/font&gt;&lt;/div&gt;&lt;div&gt;&lt;font style=&quot;font-size: 18px;&quot;&gt;&lt;br&gt;&lt;/font&gt;&lt;/div&gt;&lt;div&gt;&lt;font style=&quot;font-size: 18px;&quot;&gt;&lt;br&gt;&lt;/font&gt;&lt;/div&gt;&lt;div&gt;&lt;font style=&quot;font-size: 18px;&quot;&gt;&lt;br&gt;&lt;/font&gt;&lt;/div&gt;&lt;div&gt;&lt;font style=&quot;font-size: 18px;&quot;&gt;&lt;br&gt;&lt;/font&gt;&lt;/div&gt;" style="ellipse;whiteSpace=wrap;html=1;" parent="1" vertex="1">
          <mxGeometry x="211.66666666666674" y="640" width="230" height="130" as="geometry" />
        </mxCell>
        <mxCell id="csbuQ1kqr8Ar-hGWvevk-190" value="&lt;div&gt;&lt;font style=&quot;font-size: 18px;&quot;&gt;static&lt;br&gt;&lt;/font&gt;&lt;/div&gt;&lt;div&gt;&lt;font style=&quot;font-size: 18px;&quot;&gt;&lt;br&gt;&lt;/font&gt;&lt;/div&gt;&lt;div&gt;&lt;font style=&quot;font-size: 18px;&quot;&gt;&lt;br&gt;&lt;/font&gt;&lt;/div&gt;&lt;div&gt;&lt;font style=&quot;font-size: 18px;&quot;&gt;&lt;br&gt;&lt;/font&gt;&lt;/div&gt;&lt;div&gt;&lt;font style=&quot;font-size: 18px;&quot;&gt;&lt;br&gt;&lt;/font&gt;&lt;/div&gt;&lt;div&gt;&lt;font style=&quot;font-size: 18px;&quot;&gt;&lt;br&gt;&lt;/font&gt;&lt;/div&gt;&lt;div&gt;&lt;font style=&quot;font-size: 18px;&quot;&gt;&lt;br&gt;&lt;/font&gt;&lt;/div&gt;&lt;div&gt;&lt;font style=&quot;font-size: 18px;&quot;&gt;&lt;br&gt;&lt;/font&gt;&lt;/div&gt;&lt;div&gt;&lt;font style=&quot;font-size: 18px;&quot;&gt;&lt;br&gt;&lt;/font&gt;&lt;/div&gt;&lt;div&gt;&lt;font style=&quot;font-size: 18px;&quot;&gt;&lt;br&gt;&lt;/font&gt;&lt;/div&gt;&lt;div&gt;&lt;font style=&quot;font-size: 18px;&quot;&gt;&lt;br&gt;&lt;/font&gt;&lt;/div&gt;" style="ellipse;whiteSpace=wrap;html=1;" parent="1" vertex="1">
          <mxGeometry x="1091.6666666666667" y="1280" width="450" height="300" as="geometry" />
        </mxCell>
        <mxCell id="csbuQ1kqr8Ar-hGWvevk-191" value="&lt;font style=&quot;font-size: 18px;&quot;&gt;autoreport.py&lt;/font&gt;" style="ellipse;whiteSpace=wrap;html=1;" parent="1" vertex="1">
          <mxGeometry x="266.66666666666674" y="680" width="120" height="80" as="geometry" />
        </mxCell>
        <mxCell id="csbuQ1kqr8Ar-hGWvevk-192" value="&lt;font style=&quot;font-size: 18px;&quot;&gt;funcs.py&lt;/font&gt;" style="ellipse;whiteSpace=wrap;html=1;" parent="1" vertex="1">
          <mxGeometry x="251.66666666666674" y="875" width="135" height="80" as="geometry" />
        </mxCell>
        <mxCell id="csbuQ1kqr8Ar-hGWvevk-193" value="&lt;div&gt;&lt;font style=&quot;font-size: 18px;&quot;&gt;tests&lt;br&gt;&lt;/font&gt;&lt;/div&gt;&lt;div&gt;&lt;font style=&quot;font-size: 18px;&quot;&gt;&lt;br&gt;&lt;/font&gt;&lt;/div&gt;&lt;div&gt;&lt;font style=&quot;font-size: 18px;&quot;&gt;&lt;br&gt;&lt;/font&gt;&lt;/div&gt;&lt;div&gt;&lt;font style=&quot;font-size: 18px;&quot;&gt;&lt;br&gt;&lt;/font&gt;&lt;/div&gt;&lt;div&gt;&lt;font style=&quot;font-size: 18px;&quot;&gt;&lt;br&gt;&lt;/font&gt;&lt;/div&gt;&lt;div&gt;&lt;font style=&quot;font-size: 18px;&quot;&gt;&lt;br&gt;&lt;/font&gt;&lt;/div&gt;" style="ellipse;whiteSpace=wrap;html=1;" parent="1" vertex="1">
          <mxGeometry x="1241.6666666666667" y="1080" width="250" height="190" as="geometry" />
        </mxCell>
        <mxCell id="csbuQ1kqr8Ar-hGWvevk-194" value="&lt;div&gt;&lt;font style=&quot;font-size: 18px;&quot;&gt;docs&lt;br&gt;&lt;/font&gt;&lt;/div&gt;&lt;div&gt;&lt;font style=&quot;font-size: 18px;&quot;&gt;&lt;br&gt;&lt;/font&gt;&lt;/div&gt;&lt;div&gt;&lt;font style=&quot;font-size: 18px;&quot;&gt;&lt;br&gt;&lt;/font&gt;&lt;/div&gt;&lt;div&gt;&lt;font style=&quot;font-size: 18px;&quot;&gt;&lt;br&gt;&lt;/font&gt;&lt;/div&gt;" style="ellipse;whiteSpace=wrap;html=1;" parent="1" vertex="1">
          <mxGeometry x="1296.6666666666667" y="900" width="210" height="160" as="geometry" />
        </mxCell>
        <mxCell id="csbuQ1kqr8Ar-hGWvevk-195" value="&lt;font style=&quot;font-size: 18px;&quot;&gt;config.py&lt;/font&gt;" style="ellipse;whiteSpace=wrap;html=1;" parent="1" vertex="1">
          <mxGeometry x="1357.9966666666667" y="493" width="120" height="80" as="geometry" />
        </mxCell>
        <mxCell id="csbuQ1kqr8Ar-hGWvevk-196" value="&lt;font style=&quot;font-size: 18px;&quot;&gt;config.txt&lt;/font&gt;" style="ellipse;whiteSpace=wrap;html=1;" parent="1" vertex="1">
          <mxGeometry x="1071.6666666666667" y="897" width="120" height="80" as="geometry" />
        </mxCell>
        <mxCell id="csbuQ1kqr8Ar-hGWvevk-197" style="rounded=0;orthogonalLoop=1;jettySize=auto;html=1;exitX=0;exitY=0.5;exitDx=0;exitDy=0;entryX=1;entryY=0;entryDx=0;entryDy=0;endArrow=none;endFill=0;" parent="1" source="csbuQ1kqr8Ar-hGWvevk-187" target="csbuQ1kqr8Ar-hGWvevk-192" edge="1">
          <mxGeometry relative="1" as="geometry">
            <mxPoint x="666.6666666666667" y="770" as="sourcePoint" />
            <mxPoint x="581.6666666666667" y="730" as="targetPoint" />
          </mxGeometry>
        </mxCell>
        <mxCell id="csbuQ1kqr8Ar-hGWvevk-198" style="rounded=0;orthogonalLoop=1;jettySize=auto;html=1;exitX=1;exitY=1;exitDx=0;exitDy=0;entryX=0;entryY=0;entryDx=0;entryDy=0;endArrow=none;endFill=0;" parent="1" source="csbuQ1kqr8Ar-hGWvevk-187" target="csbuQ1kqr8Ar-hGWvevk-196" edge="1">
          <mxGeometry relative="1" as="geometry">
            <mxPoint x="768.6666666666667" y="798" as="sourcePoint" />
            <mxPoint x="909.6666666666667" y="1112" as="targetPoint" />
          </mxGeometry>
        </mxCell>
        <mxCell id="csbuQ1kqr8Ar-hGWvevk-199" style="rounded=0;orthogonalLoop=1;jettySize=auto;html=1;exitX=1;exitY=1;exitDx=0;exitDy=0;entryX=0;entryY=0.5;entryDx=0;entryDy=0;endArrow=none;endFill=0;" parent="1" source="csbuQ1kqr8Ar-hGWvevk-187" target="csbuQ1kqr8Ar-hGWvevk-193" edge="1">
          <mxGeometry relative="1" as="geometry">
            <mxPoint x="768.6666666666667" y="798" as="sourcePoint" />
            <mxPoint x="949.6666666666667" y="1022" as="targetPoint" />
          </mxGeometry>
        </mxCell>
        <mxCell id="csbuQ1kqr8Ar-hGWvevk-200" style="rounded=0;orthogonalLoop=1;jettySize=auto;html=1;exitX=1;exitY=0.5;exitDx=0;exitDy=0;entryX=0;entryY=0.5;entryDx=0;entryDy=0;endArrow=none;endFill=0;" parent="1" source="csbuQ1kqr8Ar-hGWvevk-187" target="csbuQ1kqr8Ar-hGWvevk-194" edge="1">
          <mxGeometry relative="1" as="geometry">
            <mxPoint x="768.6666666666667" y="798" as="sourcePoint" />
            <mxPoint x="971.6666666666667" y="970" as="targetPoint" />
          </mxGeometry>
        </mxCell>
        <mxCell id="csbuQ1kqr8Ar-hGWvevk-201" style="rounded=0;orthogonalLoop=1;jettySize=auto;html=1;exitX=0.5;exitY=1;exitDx=0;exitDy=0;entryX=0;entryY=0;entryDx=0;entryDy=0;endArrow=none;endFill=0;" parent="1" source="csbuQ1kqr8Ar-hGWvevk-187" target="csbuQ1kqr8Ar-hGWvevk-190" edge="1">
          <mxGeometry relative="1" as="geometry">
            <mxPoint x="786.6666666666667" y="770" as="sourcePoint" />
            <mxPoint x="991.6666666666667" y="880" as="targetPoint" />
          </mxGeometry>
        </mxCell>
        <mxCell id="csbuQ1kqr8Ar-hGWvevk-202" style="rounded=0;orthogonalLoop=1;jettySize=auto;html=1;exitX=1;exitY=0.5;exitDx=0;exitDy=0;entryX=0;entryY=0.5;entryDx=0;entryDy=0;endArrow=none;endFill=0;" parent="1" source="csbuQ1kqr8Ar-hGWvevk-187" target="csbuQ1kqr8Ar-hGWvevk-188" edge="1">
          <mxGeometry relative="1" as="geometry">
            <mxPoint x="786.6666666666667" y="770" as="sourcePoint" />
            <mxPoint x="861.6666666666667" y="720" as="targetPoint" />
          </mxGeometry>
        </mxCell>
        <mxCell id="csbuQ1kqr8Ar-hGWvevk-203" value="&lt;font style=&quot;font-size: 24px;&quot;&gt;Autoreport&lt;/font&gt;" style="text;html=1;strokeColor=none;fillColor=none;align=center;verticalAlign=middle;whiteSpace=wrap;rounded=0;" parent="1" vertex="1">
          <mxGeometry x="1430" y="630" width="121.67" height="30" as="geometry" />
        </mxCell>
        <mxCell id="csbuQ1kqr8Ar-hGWvevk-204" value="&lt;font style=&quot;font-size: 18px;&quot;&gt;Пользователь&lt;/font&gt;" style="shape=umlActor;verticalLabelPosition=bottom;verticalAlign=top;html=1;outlineConnect=0;" parent="1" vertex="1">
          <mxGeometry x="91.66666666666674" y="665" width="60" height="110" as="geometry" />
        </mxCell>
        <mxCell id="csbuQ1kqr8Ar-hGWvevk-205" style="rounded=0;orthogonalLoop=1;jettySize=auto;html=1;entryX=0;entryY=0.5;entryDx=0;entryDy=0;startArrow=none;startFill=0;" parent="1" source="csbuQ1kqr8Ar-hGWvevk-204" target="csbuQ1kqr8Ar-hGWvevk-191" edge="1">
          <mxGeometry relative="1" as="geometry">
            <mxPoint x="471.66666666666674" y="810" as="sourcePoint" />
            <mxPoint x="506.66666666666674" y="830" as="targetPoint" />
          </mxGeometry>
        </mxCell>
        <mxCell id="csbuQ1kqr8Ar-hGWvevk-206" value="&lt;font style=&quot;font-size: 18px;&quot;&gt;autoreport.log&lt;/font&gt;" style="ellipse;whiteSpace=wrap;html=1;" parent="1" vertex="1">
          <mxGeometry x="1101.6666666666667" y="460" width="120" height="80" as="geometry" />
        </mxCell>
        <mxCell id="csbuQ1kqr8Ar-hGWvevk-207" value="&lt;font style=&quot;font-size: 18px;&quot;&gt;__init__.py&lt;/font&gt;" style="ellipse;whiteSpace=wrap;html=1;" parent="1" vertex="1">
          <mxGeometry x="798.9966666666668" y="444" width="120" height="80" as="geometry" />
        </mxCell>
        <mxCell id="csbuQ1kqr8Ar-hGWvevk-208" value="&lt;font style=&quot;font-size: 18px;&quot;&gt;runlocalserver.py&lt;/font&gt;" style="ellipse;whiteSpace=wrap;html=1;" parent="1" vertex="1">
          <mxGeometry x="211.66666666666674" y="463" width="170" height="80" as="geometry" />
        </mxCell>
        <mxCell id="csbuQ1kqr8Ar-hGWvevk-209" style="rounded=0;orthogonalLoop=1;jettySize=auto;html=1;exitX=1;exitY=0;exitDx=0;exitDy=0;entryX=0;entryY=1;entryDx=0;entryDy=0;endArrow=none;endFill=0;" parent="1" source="csbuQ1kqr8Ar-hGWvevk-187" target="csbuQ1kqr8Ar-hGWvevk-206" edge="1">
          <mxGeometry relative="1" as="geometry">
            <mxPoint x="786.6666666666667" y="770" as="sourcePoint" />
            <mxPoint x="861.6666666666667" y="720" as="targetPoint" />
          </mxGeometry>
        </mxCell>
        <mxCell id="csbuQ1kqr8Ar-hGWvevk-210" value="&lt;font style=&quot;font-size: 18px;&quot;&gt;локальное логирование&lt;br&gt;&lt;/font&gt;" style="edgeLabel;html=1;align=center;verticalAlign=middle;resizable=0;points=[];" parent="csbuQ1kqr8Ar-hGWvevk-209" vertex="1" connectable="0">
          <mxGeometry x="0.384" y="-1" relative="1" as="geometry">
            <mxPoint x="56" y="-31" as="offset" />
          </mxGeometry>
        </mxCell>
        <mxCell id="csbuQ1kqr8Ar-hGWvevk-211" style="rounded=0;orthogonalLoop=1;jettySize=auto;html=1;exitX=0.5;exitY=0;exitDx=0;exitDy=0;entryX=0.5;entryY=1;entryDx=0;entryDy=0;endArrow=none;endFill=0;" parent="1" source="csbuQ1kqr8Ar-hGWvevk-187" target="csbuQ1kqr8Ar-hGWvevk-207" edge="1">
          <mxGeometry relative="1" as="geometry">
            <mxPoint x="768.6666666666667" y="742" as="sourcePoint" />
            <mxPoint x="804.6666666666667" y="638" as="targetPoint" />
          </mxGeometry>
        </mxCell>
        <mxCell id="csbuQ1kqr8Ar-hGWvevk-212" value="&lt;div&gt;&lt;font style=&quot;font-size: 18px;&quot;&gt;инициализация&lt;/font&gt;&lt;/div&gt;&lt;div&gt;&lt;font style=&quot;font-size: 18px;&quot;&gt;и настройка&lt;/font&gt;&lt;/div&gt;" style="edgeLabel;html=1;align=center;verticalAlign=middle;resizable=0;points=[];" parent="csbuQ1kqr8Ar-hGWvevk-211" vertex="1" connectable="0">
          <mxGeometry x="0.3079" y="1" relative="1" as="geometry">
            <mxPoint as="offset" />
          </mxGeometry>
        </mxCell>
        <mxCell id="csbuQ1kqr8Ar-hGWvevk-213" style="rounded=0;orthogonalLoop=1;jettySize=auto;html=1;exitX=0;exitY=0;exitDx=0;exitDy=0;entryX=1;entryY=1;entryDx=0;entryDy=0;endArrow=none;endFill=0;" parent="1" source="csbuQ1kqr8Ar-hGWvevk-187" target="csbuQ1kqr8Ar-hGWvevk-208" edge="1">
          <mxGeometry relative="1" as="geometry">
            <mxPoint x="768.6666666666667" y="742" as="sourcePoint" />
            <mxPoint x="849.6666666666667" y="648" as="targetPoint" />
          </mxGeometry>
        </mxCell>
        <mxCell id="csbuQ1kqr8Ar-hGWvevk-214" value="&lt;font style=&quot;font-size: 18px;&quot;&gt;локальный запуск&lt;br&gt;&lt;/font&gt;" style="edgeLabel;html=1;align=center;verticalAlign=middle;resizable=0;points=[];" parent="csbuQ1kqr8Ar-hGWvevk-213" vertex="1" connectable="0">
          <mxGeometry x="0.7105" y="4" relative="1" as="geometry">
            <mxPoint x="1" as="offset" />
          </mxGeometry>
        </mxCell>
        <mxCell id="csbuQ1kqr8Ar-hGWvevk-215" value="&lt;font style=&quot;font-size: 18px;&quot;&gt;utils.py&lt;/font&gt;" style="ellipse;whiteSpace=wrap;html=1;" parent="1" vertex="1">
          <mxGeometry x="494.9966666666667" y="438" width="120" height="80" as="geometry" />
        </mxCell>
        <mxCell id="csbuQ1kqr8Ar-hGWvevk-216" style="rounded=0;orthogonalLoop=1;jettySize=auto;html=1;exitX=0.5;exitY=0;exitDx=0;exitDy=0;entryX=0.5;entryY=1;entryDx=0;entryDy=0;endArrow=none;endFill=0;" parent="1" source="csbuQ1kqr8Ar-hGWvevk-187" target="csbuQ1kqr8Ar-hGWvevk-215" edge="1">
          <mxGeometry relative="1" as="geometry">
            <mxPoint x="726.6666666666667" y="730" as="sourcePoint" />
            <mxPoint x="841.6666666666667" y="620" as="targetPoint" />
          </mxGeometry>
        </mxCell>
        <mxCell id="csbuQ1kqr8Ar-hGWvevk-217" value="&lt;font style=&quot;font-size: 18px;&quot;&gt;проверка роли&lt;br&gt;&lt;/font&gt;" style="edgeLabel;html=1;align=center;verticalAlign=middle;resizable=0;points=[];" parent="csbuQ1kqr8Ar-hGWvevk-216" vertex="1" connectable="0">
          <mxGeometry x="0.4819" y="1" relative="1" as="geometry">
            <mxPoint as="offset" />
          </mxGeometry>
        </mxCell>
        <mxCell id="csbuQ1kqr8Ar-hGWvevk-218" style="rounded=0;orthogonalLoop=1;jettySize=auto;html=1;exitX=0.5;exitY=1;exitDx=0;exitDy=0;entryX=0.5;entryY=0;entryDx=0;entryDy=0;startArrow=none;startFill=0;" parent="1" source="csbuQ1kqr8Ar-hGWvevk-191" target="csbuQ1kqr8Ar-hGWvevk-192" edge="1">
          <mxGeometry relative="1" as="geometry">
            <mxPoint x="456.66666666666674" y="1020" as="sourcePoint" />
            <mxPoint x="526.6666666666667" y="858" as="targetPoint" />
          </mxGeometry>
        </mxCell>
        <mxCell id="csbuQ1kqr8Ar-hGWvevk-219" value="&lt;div&gt;&lt;font style=&quot;font-size: 18px;&quot;&gt;modules&lt;br&gt;&lt;/font&gt;&lt;/div&gt;&lt;div&gt;&lt;font style=&quot;font-size: 18px;&quot;&gt;&lt;br&gt;&lt;/font&gt;&lt;/div&gt;&lt;div&gt;&lt;font style=&quot;font-size: 18px;&quot;&gt;&lt;br&gt;&lt;/font&gt;&lt;/div&gt;&lt;div&gt;&lt;font style=&quot;font-size: 18px;&quot;&gt;&lt;br&gt;&lt;/font&gt;&lt;/div&gt;&lt;div&gt;&lt;font style=&quot;font-size: 18px;&quot;&gt;&lt;br&gt;&lt;/font&gt;&lt;/div&gt;&lt;div&gt;&lt;font style=&quot;font-size: 18px;&quot;&gt;&lt;br&gt;&lt;/font&gt;&lt;/div&gt;&lt;div&gt;&lt;font style=&quot;font-size: 18px;&quot;&gt;&lt;br&gt;&lt;/font&gt;&lt;/div&gt;&lt;div&gt;&lt;font style=&quot;font-size: 18px;&quot;&gt;&lt;br&gt;&lt;/font&gt;&lt;/div&gt;&lt;div&gt;&lt;font style=&quot;font-size: 18px;&quot;&gt;&lt;br&gt;&lt;/font&gt;&lt;/div&gt;&lt;div&gt;&lt;br&gt;&lt;/div&gt;&lt;div&gt;&lt;br&gt;&lt;/div&gt;&lt;div&gt;&lt;br&gt;&lt;/div&gt;&lt;div&gt;&lt;br&gt;&lt;/div&gt;&lt;div&gt;&lt;br&gt;&lt;/div&gt;&lt;div&gt;&lt;br&gt;&lt;/div&gt;&lt;div&gt;&lt;br&gt;&lt;/div&gt;&lt;div&gt;&lt;br&gt;&lt;/div&gt;&lt;div&gt;&lt;br&gt;&lt;/div&gt;" style="ellipse;whiteSpace=wrap;html=1;" parent="1" vertex="1">
          <mxGeometry x="332.66666666666674" y="900" width="449" height="346" as="geometry" />
        </mxCell>
        <mxCell id="csbuQ1kqr8Ar-hGWvevk-220" value="&lt;font style=&quot;font-size: 18px;&quot;&gt;curriculum_getter.py&lt;/font&gt;" style="ellipse;whiteSpace=wrap;html=1;" parent="1" vertex="1">
          <mxGeometry x="467.16666666666674" y="1014" width="180" height="70" as="geometry" />
        </mxCell>
        <mxCell id="csbuQ1kqr8Ar-hGWvevk-221" value="&lt;font style=&quot;font-size: 18px;&quot;&gt;curriculum_parser.py&lt;/font&gt;" style="ellipse;whiteSpace=wrap;html=1;" parent="1" vertex="1">
          <mxGeometry x="467.16666666666674" y="1090" width="180" height="70" as="geometry" />
        </mxCell>
        <mxCell id="csbuQ1kqr8Ar-hGWvevk-222" value="&lt;font style=&quot;font-size: 18px;&quot;&gt;report_generator.py&lt;/font&gt;" style="ellipse;whiteSpace=wrap;html=1;" parent="1" vertex="1">
          <mxGeometry x="472.16666666666674" y="939" width="170" height="70" as="geometry" />
        </mxCell>
        <mxCell id="csbuQ1kqr8Ar-hGWvevk-223" style="rounded=0;orthogonalLoop=1;jettySize=auto;html=1;exitX=0.5;exitY=1;exitDx=0;exitDy=0;entryX=0.5;entryY=0;entryDx=0;entryDy=0;endArrow=none;endFill=0;" parent="1" source="csbuQ1kqr8Ar-hGWvevk-187" target="csbuQ1kqr8Ar-hGWvevk-219" edge="1">
          <mxGeometry relative="1" as="geometry">
            <mxPoint x="666.6666666666667" y="770" as="sourcePoint" />
            <mxPoint x="376.66666666666674" y="897" as="targetPoint" />
          </mxGeometry>
        </mxCell>
        <mxCell id="csbuQ1kqr8Ar-hGWvevk-224" style="rounded=0;orthogonalLoop=1;jettySize=auto;html=1;exitX=0;exitY=0.5;exitDx=0;exitDy=0;entryX=1;entryY=0.5;entryDx=0;entryDy=0;startArrow=classic;startFill=1;endArrow=none;endFill=0;" parent="1" source="csbuQ1kqr8Ar-hGWvevk-222" target="csbuQ1kqr8Ar-hGWvevk-192" edge="1">
          <mxGeometry relative="1" as="geometry">
            <mxPoint x="336.66666666666674" y="770" as="sourcePoint" />
            <mxPoint x="329.66666666666674" y="885" as="targetPoint" />
          </mxGeometry>
        </mxCell>
        <mxCell id="csbuQ1kqr8Ar-hGWvevk-225" style="rounded=0;orthogonalLoop=1;jettySize=auto;html=1;exitX=0;exitY=0.5;exitDx=0;exitDy=0;entryX=1;entryY=1;entryDx=0;entryDy=0;startArrow=classic;startFill=1;endArrow=none;endFill=0;" parent="1" source="csbuQ1kqr8Ar-hGWvevk-220" target="csbuQ1kqr8Ar-hGWvevk-192" edge="1">
          <mxGeometry relative="1" as="geometry">
            <mxPoint x="506.66666666666674" y="985" as="sourcePoint" />
            <mxPoint x="376.66666666666674" y="953" as="targetPoint" />
          </mxGeometry>
        </mxCell>
        <mxCell id="csbuQ1kqr8Ar-hGWvevk-226" style="rounded=0;orthogonalLoop=1;jettySize=auto;html=1;exitX=0;exitY=0.5;exitDx=0;exitDy=0;entryX=0.699;entryY=0.982;entryDx=0;entryDy=0;startArrow=classic;startFill=1;entryPerimeter=0;endArrow=none;endFill=0;" parent="1" source="csbuQ1kqr8Ar-hGWvevk-221" target="csbuQ1kqr8Ar-hGWvevk-192" edge="1">
          <mxGeometry relative="1" as="geometry">
            <mxPoint x="501.66666666666674" y="1065" as="sourcePoint" />
            <mxPoint x="376.66666666666674" y="953" as="targetPoint" />
          </mxGeometry>
        </mxCell>
        <mxCell id="csbuQ1kqr8Ar-hGWvevk-227" value="&lt;div&gt;&lt;font style=&quot;font-size: 18px;&quot;&gt;models&lt;/font&gt;&lt;/div&gt;&lt;div&gt;&lt;font style=&quot;font-size: 18px;&quot;&gt;&lt;br&gt;&lt;/font&gt;&lt;/div&gt;&lt;div&gt;&lt;font style=&quot;font-size: 18px;&quot;&gt;&lt;br&gt;&lt;/font&gt;&lt;/div&gt;&lt;div&gt;&lt;font style=&quot;font-size: 18px;&quot;&gt;&lt;br&gt;&lt;/font&gt;&lt;/div&gt;&lt;div&gt;&lt;font style=&quot;font-size: 18px;&quot;&gt;&lt;br&gt;&lt;/font&gt;&lt;/div&gt;&lt;div&gt;&lt;font style=&quot;font-size: 18px;&quot;&gt;&lt;br&gt;&lt;/font&gt;&lt;/div&gt;&lt;div&gt;&lt;font style=&quot;font-size: 18px;&quot;&gt;&lt;br&gt;&lt;/font&gt;&lt;/div&gt;&lt;div&gt;&lt;font style=&quot;font-size: 18px;&quot;&gt;&lt;br&gt;&lt;/font&gt;&lt;/div&gt;&lt;div&gt;&lt;font style=&quot;font-size: 18px;&quot;&gt;&lt;br&gt;&lt;/font&gt;&lt;/div&gt;&lt;div&gt;&lt;br&gt;&lt;/div&gt;&lt;div&gt;&lt;br&gt;&lt;/div&gt;&lt;div&gt;&lt;br&gt;&lt;/div&gt;&lt;div&gt;&lt;br&gt;&lt;/div&gt;" style="ellipse;whiteSpace=wrap;html=1;" parent="1" vertex="1">
          <mxGeometry x="631.6666666666667" y="1200" width="440" height="300" as="geometry" />
        </mxCell>
        <mxCell id="csbuQ1kqr8Ar-hGWvevk-228" style="rounded=0;orthogonalLoop=1;jettySize=auto;html=1;exitX=0.5;exitY=1;exitDx=0;exitDy=0;entryX=0.5;entryY=0;entryDx=0;entryDy=0;endArrow=none;endFill=0;" parent="1" source="csbuQ1kqr8Ar-hGWvevk-187" target="csbuQ1kqr8Ar-hGWvevk-227" edge="1">
          <mxGeometry relative="1" as="geometry">
            <mxPoint x="768.6666666666667" y="798" as="sourcePoint" />
            <mxPoint x="909.6666666666667" y="1112" as="targetPoint" />
          </mxGeometry>
        </mxCell>
        <mxCell id="csbuQ1kqr8Ar-hGWvevk-229" value="&lt;div&gt;&lt;font style=&quot;font-size: 18px;&quot;&gt;models&lt;br&gt;&lt;/font&gt;&lt;/div&gt;&lt;div&gt;&lt;font style=&quot;font-size: 18px;&quot;&gt;&lt;br&gt;&lt;/font&gt;&lt;/div&gt;&lt;div&gt;&lt;font style=&quot;font-size: 18px;&quot;&gt;&lt;br&gt;&lt;/font&gt;&lt;/div&gt;&lt;div&gt;&lt;font style=&quot;font-size: 18px;&quot;&gt;&lt;br&gt;&lt;/font&gt;&lt;/div&gt;&lt;div&gt;&lt;font style=&quot;font-size: 18px;&quot;&gt;&lt;br&gt;&lt;/font&gt;&lt;/div&gt;&lt;div&gt;&lt;font style=&quot;font-size: 18px;&quot;&gt;&lt;br&gt;&lt;/font&gt;&lt;/div&gt;" style="ellipse;whiteSpace=wrap;html=1;" parent="1" vertex="1">
          <mxGeometry x="451.66666666666674" y="195" width="310" height="152" as="geometry" />
        </mxCell>
        <mxCell id="csbuQ1kqr8Ar-hGWvevk-230" style="rounded=0;orthogonalLoop=1;jettySize=auto;html=1;exitX=0.5;exitY=0;exitDx=0;exitDy=0;entryX=0.5;entryY=1;entryDx=0;entryDy=0;endArrow=none;endFill=0;" parent="1" source="csbuQ1kqr8Ar-hGWvevk-187" target="csbuQ1kqr8Ar-hGWvevk-229" edge="1">
          <mxGeometry relative="1" as="geometry">
            <mxPoint x="726.6666666666667" y="730" as="sourcePoint" />
            <mxPoint x="841.6666666666667" y="620" as="targetPoint" />
          </mxGeometry>
        </mxCell>
        <mxCell id="csbuQ1kqr8Ar-hGWvevk-231" value="&lt;div&gt;&lt;font style=&quot;font-size: 18px;&quot;&gt;пользователи&lt;/font&gt;&lt;/div&gt;&lt;div&gt;&lt;font style=&quot;font-size: 18px;&quot;&gt;и роли&lt;br&gt;&lt;/font&gt;&lt;/div&gt;" style="edgeLabel;html=1;align=center;verticalAlign=middle;resizable=0;points=[];" parent="csbuQ1kqr8Ar-hGWvevk-230" vertex="1" connectable="0">
          <mxGeometry x="0.6285" y="3" relative="1" as="geometry">
            <mxPoint x="-7" y="-10" as="offset" />
          </mxGeometry>
        </mxCell>
        <mxCell id="csbuQ1kqr8Ar-hGWvevk-232" value="&lt;font style=&quot;font-size: 18px;&quot;&gt;role.py&lt;/font&gt;" style="ellipse;whiteSpace=wrap;html=1;" parent="1" vertex="1">
          <mxGeometry x="616.6666666666667" y="237" width="120" height="80" as="geometry" />
        </mxCell>
        <mxCell id="csbuQ1kqr8Ar-hGWvevk-233" value="&lt;font style=&quot;font-size: 18px;&quot;&gt;user.py&lt;/font&gt;" style="ellipse;whiteSpace=wrap;html=1;" parent="1" vertex="1">
          <mxGeometry x="476.66666666666674" y="237" width="120" height="80" as="geometry" />
        </mxCell>
        <mxCell id="csbuQ1kqr8Ar-hGWvevk-234" value="&lt;font style=&quot;font-size: 18px;&quot;&gt;reports.py&lt;/font&gt;" style="ellipse;whiteSpace=wrap;html=1;" parent="1" vertex="1">
          <mxGeometry x="761.6666666666667" y="1330" width="180" height="70" as="geometry" />
        </mxCell>
        <mxCell id="csbuQ1kqr8Ar-hGWvevk-235" value="&lt;font style=&quot;font-size: 18px;&quot;&gt;subjects.py&lt;/font&gt;" style="ellipse;whiteSpace=wrap;html=1;" parent="1" vertex="1">
          <mxGeometry x="761.6666666666667" y="1410" width="180" height="70" as="geometry" />
        </mxCell>
        <mxCell id="csbuQ1kqr8Ar-hGWvevk-236" value="&lt;font style=&quot;font-size: 18px;&quot;&gt;directions.py&lt;/font&gt;" style="ellipse;whiteSpace=wrap;html=1;" parent="1" vertex="1">
          <mxGeometry x="766.6666666666667" y="1250" width="170" height="70" as="geometry" />
        </mxCell>
        <mxCell id="csbuQ1kqr8Ar-hGWvevk-237" value="&lt;font style=&quot;font-size: 18px;&quot;&gt;test_app.py&lt;/font&gt;" style="ellipse;whiteSpace=wrap;html=1;" parent="1" vertex="1">
          <mxGeometry x="1281.6666666666667" y="1160" width="170" height="70" as="geometry" />
        </mxCell>
        <mxCell id="csbuQ1kqr8Ar-hGWvevk-238" value="&lt;font style=&quot;font-size: 18px;&quot;&gt;*.doc&lt;/font&gt;" style="ellipse;whiteSpace=wrap;html=1;" parent="1" vertex="1">
          <mxGeometry x="1316.6666666666667" y="965" width="170" height="70" as="geometry" />
        </mxCell>
        <mxCell id="csbuQ1kqr8Ar-hGWvevk-239" value="&lt;font style=&quot;font-size: 18px;&quot;&gt;*.html&lt;/font&gt;" style="ellipse;whiteSpace=wrap;html=1;" parent="1" vertex="1">
          <mxGeometry x="1316.6666666666667" y="780" width="170" height="70" as="geometry" />
        </mxCell>
        <mxCell id="csbuQ1kqr8Ar-hGWvevk-240" value="&lt;div&gt;&lt;font style=&quot;font-size: 18px;&quot;&gt;css&lt;/font&gt;&lt;/div&gt;&lt;div&gt;&lt;font style=&quot;font-size: 18px;&quot;&gt;&lt;br&gt;&lt;/font&gt;&lt;/div&gt;&lt;div&gt;&lt;font style=&quot;font-size: 18px;&quot;&gt;&lt;br&gt;&lt;/font&gt;&lt;/div&gt;&lt;div&gt;&lt;font style=&quot;font-size: 18px;&quot;&gt;&lt;br&gt;&lt;/font&gt;&lt;/div&gt;&lt;div&gt;&lt;font style=&quot;font-size: 18px;&quot;&gt;&lt;br&gt;&lt;/font&gt;&lt;/div&gt;" style="ellipse;whiteSpace=wrap;html=1;" parent="1" vertex="1">
          <mxGeometry x="1101.6666666666667" y="1370" width="210" height="160" as="geometry" />
        </mxCell>
        <mxCell id="csbuQ1kqr8Ar-hGWvevk-241" value="&lt;div&gt;&lt;font style=&quot;font-size: 18px;&quot;&gt;js&lt;/font&gt;&lt;/div&gt;&lt;div&gt;&lt;font style=&quot;font-size: 18px;&quot;&gt;&lt;br&gt;&lt;/font&gt;&lt;/div&gt;&lt;div&gt;&lt;font style=&quot;font-size: 18px;&quot;&gt;&lt;br&gt;&lt;/font&gt;&lt;/div&gt;&lt;div&gt;&lt;font style=&quot;font-size: 18px;&quot;&gt;&lt;br&gt;&lt;/font&gt;&lt;/div&gt;&lt;div&gt;&lt;font style=&quot;font-size: 18px;&quot;&gt;&lt;br&gt;&lt;/font&gt;&lt;/div&gt;" style="ellipse;whiteSpace=wrap;html=1;" parent="1" vertex="1">
          <mxGeometry x="1321.6666666666667" y="1370" width="210" height="160" as="geometry" />
        </mxCell>
        <mxCell id="csbuQ1kqr8Ar-hGWvevk-242" value="&lt;font style=&quot;font-size: 18px;&quot;&gt;*.css&lt;/font&gt;" style="ellipse;whiteSpace=wrap;html=1;" parent="1" vertex="1">
          <mxGeometry x="1121.6666666666667" y="1430" width="170" height="70" as="geometry" />
        </mxCell>
        <mxCell id="csbuQ1kqr8Ar-hGWvevk-243" value="&lt;font style=&quot;font-size: 18px;&quot;&gt;*.js&lt;/font&gt;" style="ellipse;whiteSpace=wrap;html=1;" parent="1" vertex="1">
          <mxGeometry x="1341.6666666666667" y="1430" width="170" height="70" as="geometry" />
        </mxCell>
        <mxCell id="csbuQ1kqr8Ar-hGWvevk-244" value="&lt;div&gt;&lt;font style=&quot;font-size: 18px;&quot;&gt;templates&lt;br&gt;&lt;/font&gt;&lt;/div&gt;&lt;div&gt;&lt;font style=&quot;font-size: 18px;&quot;&gt;&lt;br&gt;&lt;/font&gt;&lt;/div&gt;&lt;div&gt;&lt;font style=&quot;font-size: 18px;&quot;&gt;&lt;br&gt;&lt;/font&gt;&lt;/div&gt;&lt;div&gt;&lt;font style=&quot;font-size: 18px;&quot;&gt;&lt;br&gt;&lt;/font&gt;&lt;/div&gt;&lt;div&gt;&lt;font style=&quot;font-size: 18px;&quot;&gt;&lt;br&gt;&lt;/font&gt;&lt;/div&gt;" style="ellipse;whiteSpace=wrap;html=1;" parent="1" vertex="1">
          <mxGeometry x="956.9966666666667" y="195" width="240" height="176" as="geometry" />
        </mxCell>
        <mxCell id="csbuQ1kqr8Ar-hGWvevk-245" value="&lt;font style=&quot;font-size: 18px;&quot;&gt;exam.html&lt;/font&gt;" style="ellipse;whiteSpace=wrap;html=1;" parent="1" vertex="1">
          <mxGeometry x="991.9966666666667" y="261" width="170" height="70" as="geometry" />
        </mxCell>
        <mxCell id="csbuQ1kqr8Ar-hGWvevk-246" style="rounded=0;orthogonalLoop=1;jettySize=auto;html=1;exitX=1;exitY=0;exitDx=0;exitDy=0;entryX=0;entryY=1;entryDx=0;entryDy=0;endArrow=none;endFill=0;" parent="1" source="csbuQ1kqr8Ar-hGWvevk-187" target="csbuQ1kqr8Ar-hGWvevk-244" edge="1">
          <mxGeometry relative="1" as="geometry">
            <mxPoint x="786.6666666666667" y="770" as="sourcePoint" />
            <mxPoint x="1101.6666666666667" y="740" as="targetPoint" />
          </mxGeometry>
        </mxCell>
        <mxCell id="csbuQ1kqr8Ar-hGWvevk-247" value="&lt;div&gt;&lt;font style=&quot;font-size: 18px;&quot;&gt;Страница, на которой будет ссылка&lt;/font&gt;&lt;/div&gt;&lt;div&gt;&lt;font style=&quot;font-size: 18px;&quot;&gt;на систему Autoreport&lt;br&gt;&lt;/font&gt;&lt;/div&gt;" style="edgeLabel;html=1;align=center;verticalAlign=middle;resizable=0;points=[];" parent="csbuQ1kqr8Ar-hGWvevk-246" vertex="1" connectable="0">
          <mxGeometry x="0.4396" y="1" relative="1" as="geometry">
            <mxPoint x="18" y="-40" as="offset" />
          </mxGeometry>
        </mxCell>
        <mxCell id="csbuQ1kqr8Ar-hGWvevk-248" value="&lt;font style=&quot;font-size: 18px;&quot;&gt;report_state.py&lt;/font&gt;" style="ellipse;whiteSpace=wrap;html=1;" parent="1" vertex="1">
          <mxGeometry x="467.16666666666674" y="1166" width="180" height="70" as="geometry" />
        </mxCell>
        <mxCell id="csbuQ1kqr8Ar-hGWvevk-249" style="rounded=0;orthogonalLoop=1;jettySize=auto;html=1;exitX=0;exitY=0.5;exitDx=0;exitDy=0;entryX=0.5;entryY=1;entryDx=0;entryDy=0;startArrow=classic;startFill=1;endArrow=none;endFill=0;" parent="1" source="csbuQ1kqr8Ar-hGWvevk-248" target="csbuQ1kqr8Ar-hGWvevk-192" edge="1">
          <mxGeometry relative="1" as="geometry">
            <mxPoint x="476.66666666666674" y="1135" as="sourcePoint" />
            <mxPoint x="329.66666666666674" y="965" as="targetPoint" />
          </mxGeometry>
        </mxCell>
        <mxCell id="csbuQ1kqr8Ar-hGWvevk-255" value="&lt;div&gt;&lt;font style=&quot;font-size: 24px;&quot;&gt;Дополнительные объекты&lt;/font&gt;&lt;/div&gt;&lt;div&gt;&lt;font style=&quot;font-size: 24px;&quot;&gt;для локальной разработки&lt;br&gt;&lt;/font&gt;&lt;/div&gt;" style="text;html=1;strokeColor=none;fillColor=none;align=center;verticalAlign=middle;whiteSpace=wrap;rounded=0;" parent="1" vertex="1">
          <mxGeometry x="1239" y="162" width="313" height="58" as="geometry" />
        </mxCell>
        <mxCell id="gVwG0Lx8BZrEFRBcDOPA-4" value="&lt;div&gt;&lt;font style=&quot;font-size: 24px;&quot;&gt;Легенда&lt;/font&gt;&lt;/div&gt;&lt;div&gt;&lt;font style=&quot;font-size: 24px;&quot;&gt;&lt;br&gt;&lt;/font&gt;&lt;/div&gt;&lt;div&gt;&lt;font style=&quot;font-size: 24px;&quot;&gt;&lt;br&gt;&lt;/font&gt;&lt;/div&gt;&lt;div&gt;&lt;font style=&quot;font-size: 24px;&quot;&gt;&lt;br&gt;&lt;/font&gt;&lt;/div&gt;&lt;div&gt;&lt;font style=&quot;font-size: 24px;&quot;&gt;&lt;br&gt;&lt;/font&gt;&lt;/div&gt;&lt;div&gt;&lt;br&gt;&lt;/div&gt;&lt;div&gt;&lt;br&gt;&lt;/div&gt;&lt;div&gt;&lt;br&gt;&lt;/div&gt;&lt;div&gt;&lt;br&gt;&lt;/div&gt;&lt;div&gt;&lt;br&gt;&lt;/div&gt;" style="rounded=0;whiteSpace=wrap;html=1;dashed=1;" vertex="1" parent="1">
          <mxGeometry x="-474" y="162" width="675.67" height="253" as="geometry" />
        </mxCell>
        <mxCell id="gVwG0Lx8BZrEFRBcDOPA-5" value="" style="endArrow=none;html=1;rounded=0;exitX=1;exitY=0.5;exitDx=0;exitDy=0;entryX=0;entryY=0.5;entryDx=0;entryDy=0;" edge="1" parent="1" source="gVwG0Lx8BZrEFRBcDOPA-9" target="gVwG0Lx8BZrEFRBcDOPA-10">
          <mxGeometry width="50" height="50" relative="1" as="geometry">
            <mxPoint x="-241" y="237" as="sourcePoint" />
            <mxPoint x="-191" y="187" as="targetPoint" />
          </mxGeometry>
        </mxCell>
        <mxCell id="gVwG0Lx8BZrEFRBcDOPA-9" value="Объект 1" style="ellipse;whiteSpace=wrap;html=1;" vertex="1" parent="1">
          <mxGeometry x="-461" y="215" width="120" height="80" as="geometry" />
        </mxCell>
        <mxCell id="gVwG0Lx8BZrEFRBcDOPA-10" value="Объект 2" style="ellipse;whiteSpace=wrap;html=1;" vertex="1" parent="1">
          <mxGeometry x="-308" y="215" width="120" height="80" as="geometry" />
        </mxCell>
        <mxCell id="gVwG0Lx8BZrEFRBcDOPA-11" value="&lt;div align=&quot;left&quot;&gt;&amp;nbsp;&lt;font style=&quot;font-size: 24px;&quot;&gt;-&lt;/font&gt; &lt;font style=&quot;font-size: 18px;&quot;&gt;объект 1 содержит в себе объект 2&lt;/font&gt;&lt;/div&gt;" style="text;html=1;strokeColor=none;fillColor=none;align=left;verticalAlign=middle;whiteSpace=wrap;rounded=0;" vertex="1" parent="1">
          <mxGeometry x="-173" y="210" width="363" height="85" as="geometry" />
        </mxCell>
        <mxCell id="gVwG0Lx8BZrEFRBcDOPA-15" value="" style="endArrow=classic;html=1;rounded=0;exitX=1;exitY=0.5;exitDx=0;exitDy=0;entryX=0;entryY=0.5;entryDx=0;entryDy=0;startArrow=none;startFill=0;endFill=1;" edge="1" parent="1" source="gVwG0Lx8BZrEFRBcDOPA-16" target="gVwG0Lx8BZrEFRBcDOPA-17">
          <mxGeometry width="50" height="50" relative="1" as="geometry">
            <mxPoint x="-241" y="346" as="sourcePoint" />
            <mxPoint x="-191" y="296" as="targetPoint" />
          </mxGeometry>
        </mxCell>
        <mxCell id="gVwG0Lx8BZrEFRBcDOPA-16" value="Объект 1" style="ellipse;whiteSpace=wrap;html=1;" vertex="1" parent="1">
          <mxGeometry x="-461" y="324" width="120" height="80" as="geometry" />
        </mxCell>
        <mxCell id="gVwG0Lx8BZrEFRBcDOPA-17" value="Объект 2" style="ellipse;whiteSpace=wrap;html=1;" vertex="1" parent="1">
          <mxGeometry x="-308" y="324" width="120" height="80" as="geometry" />
        </mxCell>
        <mxCell id="gVwG0Lx8BZrEFRBcDOPA-18" value="&lt;div align=&quot;left&quot;&gt;&amp;nbsp;&lt;font style=&quot;font-size: 24px;&quot;&gt;-&lt;/font&gt; &lt;font style=&quot;font-size: 18px;&quot;&gt;объект 1 взаимодействует с объектом 2 посредством вызова функций и т.п.&lt;br&gt;&lt;/font&gt;&lt;/div&gt;" style="text;html=1;strokeColor=none;fillColor=none;align=left;verticalAlign=middle;whiteSpace=wrap;rounded=0;" vertex="1" parent="1">
          <mxGeometry x="-175" y="321.5" width="365" height="85" as="geometry" />
        </mxCell>
      </root>
    </mxGraphModel>
  </diagram>
</mxfile>
